<?xml version="1.0" encoding="utf-8"?>
<svg xmlns="http://www.w3.org/2000/svg" xmlns:xlink="http://www.w3.org/1999/xlink" style="margin: auto; background: none; display: block; shape-rendering: auto;" width="200px" height="200px" viewBox="0 0 100 100" preserveAspectRatio="xMidYMid">
<g transform="translate(50 50)">
<g>
<animateTransform attributeName="transform" type="rotate" values="0;32.72727272727273" keyTimes="0;1" dur="0.2s" repeatCount="indefinite"></animateTransform><path d="M29.491524206117255 -5.5 L37.491524206117255 -5.5 L37.491524206117255 5.5 L29.491524206117255 5.5 A30 30 0 0 1 27.783373422978222 11.31742732423528 L27.783373422978222 11.31742732423528 L34.51340168562767 15.64255386388006 L28.5663526936161 24.896342725023054 L21.836324430966652 20.571216185378272 A30 30 0 0 1 17.254197885979497 24.54165143814614 L17.254197885979497 24.54165143814614 L20.57751798999459 31.818707400982287 L10.57156604109489 36.38827254400304 L7.2482459370797985 29.111216581166893 A30 30 0 0 1 1.246936432518882 29.974074623468482 L1.246936432518882 29.974074623468482 L0.1084177263326025 37.892646158515944 L-10.779618134357655 36.327182937509804 L-9.641099428171374 28.408611402462345 A30 30 0 0 1 -15.15621852783466 25.88994090253049 L-15.15621852783466 25.88994090253049 L-20.395104399396942 31.935937497364556 L-28.708349717293792 24.732469423966418 L-23.46946384573151 18.686472829132352 A30 30 0 0 1 -26.74738119432351 13.58593387462007 L-26.74738119432351 13.58593387462007 L-34.42332498323949 15.839794329351507 L-37.52238310849522 5.285371619592024 L-29.84643931957924 3.031511164860587 A30 30 0 0 1 -29.84643931957924 -3.0315111648605795 L-29.84643931957924 -3.0315111648605795 L-37.52238310849522 -5.285371619592015 L-34.423324983239496 -15.839794329351498 L-26.747381194323513 -13.585933874620062 A30 30 0 0 1 -23.469463845731514 -18.686472829132345 L-23.469463845731514 -18.686472829132345 L-28.7083497172938 -24.73246942396641 L-20.395104399396963 -31.93593749736455 L-15.156218527834678 -25.889940902530483 A30 30 0 0 1 -9.641099428171389 -28.40861140246234 L-9.641099428171389 -28.40861140246234 L-10.779618134357671 -36.327182937509804 L0.1084177263325996 -37.892646158515944 L1.2469364325188814 -29.974074623468482 A30 30 0 0 1 7.248245937079778 -29.111216581166897 L7.248245937079778 -29.111216581166897 L10.571566041094865 -36.388272544003044 L20.57751798999458 -31.81870740098229 L17.25419788597949 -24.541651438146143 A30 30 0 0 1 21.83632443096665 -20.571216185378276 L21.83632443096665 -20.571216185378276 L28.566352693616096 -24.896342725023057 L34.51340168562768 -15.642553863880053 L27.783373422978226 -11.317427324235274 A30 30 0 0 1 29.491524206117255 -5.500000000000013 M0 -20A20 20 0 1 0 0 20 A20 20 0 1 0 0 -20" fill="#93dbe9"></path></g></g>
<!-- [ldio] generated by https://loading.io/ --></svg>